<?xml version="1.0" standalone="no"?>
<!DOCTYPE svg PUBLIC "-//W3C//DTD SVG 20010904//EN"
 "http://www.w3.org/TR/2001/REC-SVG-20010904/DTD/svg10.dtd">
<svg version="1.0" xmlns="http://www.w3.org/2000/svg"
 width="250.000000pt" height="250.000000pt" viewBox="0 0 250.000000 250.000000"
 preserveAspectRatio="xMidYMid meet">

<g transform="translate(0.000000,250.000000) scale(0.100000,-0.100000)"
fill="#ffffff" stroke="none">
<path d="M0 2150 l0 -350 350 0 350 0 0 350 0 350 -350 0 -350 0 0 -350z m600
0 l0 -250 -250 0 -250 0 0 250 0 250 250 0 250 0 0 -250z" fill="#000000"/>
<path d="M200 2150 l0 -150 150 0 150 0 0 150 0 150 -150 0 -150 0 0 -150z" fill="#000000"/>
<path d="M900 2450 l0 -50 -50 0 -50 0 0 -50 0 -50 50 0 50 0 0 -100 0 -100
-50 0 -50 0 0 -50 0 -50 50 0 50 0 0 -50 0 -50 -50 0 -50 0 0 -50 0 -50 50 0
50 0 0 50 0 50 50 0 50 0 0 -150 0 -150 -50 0 -50 0 0 -100 0 -100 50 0 50 0
0 50 0 50 50 0 50 0 0 200 0 200 -50 0 -50 0 0 50 0 50 -50 0 -50 0 0 50 0 50
150 0 150 0 0 -50 0 -50 100 0 100 0 0 -100 0 -100 50 0 50 0 0 50 0 50 50 0
50 0 0 -100 0 -100 -50 0 -50 0 0 -50 0 -50 100 0 100 0 0 -50 0 -50 -50 0
-50 0 0 -50 0 -50 50 0 50 0 0 50 0 50 50 0 50 0 0 -50 0 -50 50 0 50 0 0 -50
0 -50 -50 0 -50 0 0 -50 0 -50 -100 0 -100 0 0 50 0 50 -50 0 -50 0 0 100 0
100 -50 0 -50 0 0 50 0 50 -100 0 -100 0 0 -50 0 -50 100 0 100 0 0 -50 0 -50
-50 0 -50 0 0 -50 0 -50 50 0 50 0 0 -100 0 -100 -50 0 -50 0 0 -50 0 -50 50
0 50 0 0 50 0 50 50 0 50 0 0 50 0 50 50 0 50 0 0 -50 0 -50 50 0 50 0 0 -50
0 -50 50 0 50 0 0 50 0 50 50 0 50 0 0 -50 0 -50 50 0 50 0 0 -50 0 -50 -200
0 -200 0 0 50 0 50 -50 0 -50 0 0 -150 0 -150 -50 0 -50 0 0 50 0 50 -50 0
-50 0 0 50 0 50 -50 0 -50 0 0 50 0 50 -50 0 -50 0 0 50 0 50 50 0 50 0 0 100
0 100 -50 0 -50 0 0 -50 0 -50 -50 0 -50 0 0 -50 0 -50 -50 0 -50 0 0 100 0
100 -50 0 -50 0 0 -50 0 -50 -50 0 -50 0 0 50 0 50 -100 0 -100 0 0 50 0 50
100 0 100 0 0 50 0 50 50 0 50 0 0 50 0 50 -50 0 -50 0 0 50 0 50 -50 0 -50 0
0 -50 0 -50 50 0 50 0 0 -50 0 -50 -100 0 -100 0 0 100 0 100 -50 0 -50 0 0
-100 0 -100 -50 0 -50 0 0 100 0 100 -50 0 -50 0 0 -100 0 -100 -100 0 -100 0
0 -100 0 -100 50 0 50 0 0 50 0 50 100 0 100 0 0 -50 0 -50 -50 0 -50 0 0 -50
0 -50 100 0 100 0 0 50 0 50 50 0 50 0 0 -50 0 -50 100 0 100 0 0 -50 0 -50
-50 0 -50 0 0 -50 0 -50 50 0 50 0 0 50 0 50 50 0 50 0 0 -100 0 -100 -150 0
-150 0 0 100 0 100 -200 0 -200 0 0 50 0 50 -50 0 -50 0 0 -50 0 -50 50 0 50
0 0 -50 0 -50 -50 0 -50 0 0 -50 0 -50 50 0 50 0 0 -50 0 -50 350 0 350 0 0
-50 0 -50 50 0 50 0 0 -50 0 -50 50 0 50 0 0 -50 0 -50 50 0 50 0 0 -50 0 -50
-100 0 -100 0 0 50 0 50 -50 0 -50 0 0 -50 0 -50 50 0 50 0 0 -50 0 -50 -50 0
-50 0 0 -50 0 -50 50 0 50 0 0 -50 0 -50 -50 0 -50 0 0 -50 0 -50 50 0 50 0 0
50 0 50 50 0 50 0 0 -50 0 -50 50 0 50 0 0 50 0 50 50 0 50 0 0 -50 0 -50 50
0 50 0 0 50 0 50 -50 0 -50 0 0 50 0 50 -50 0 -50 0 0 50 0 50 50 0 50 0 0
100 0 100 100 0 100 0 0 -100 0 -100 -50 0 -50 0 0 -50 0 -50 50 0 50 0 0 50
0 50 50 0 50 0 0 -50 0 -50 50 0 50 0 0 -50 0 -50 -50 0 -50 0 0 -50 0 -50
250 0 250 0 0 50 0 50 100 0 100 0 0 50 0 50 -50 0 -50 0 0 50 0 50 100 0 100
0 0 50 0 50 -50 0 -50 0 0 250 0 250 -50 0 -50 0 0 50 0 50 -50 0 -50 0 0 50
0 50 -50 0 -50 0 0 50 0 50 50 0 50 0 0 50 0 50 50 0 50 0 0 -100 0 -100 50 0
50 0 0 -50 0 -50 50 0 50 0 0 -50 0 -50 50 0 50 0 0 50 0 50 50 0 50 0 0 150
0 150 -50 0 -50 0 0 50 0 50 50 0 50 0 0 100 0 100 -50 0 -50 0 0 50 0 50 -50
0 -50 0 0 -50 0 -50 50 0 50 0 0 -50 0 -50 -100 0 -100 0 0 -50 0 -50 50 0 50
0 0 -100 0 -100 50 0 50 0 0 -50 0 -50 -100 0 -100 0 0 100 0 100 -50 0 -50 0
0 100 0 100 -100 0 -100 0 0 50 0 50 -100 0 -100 0 0 150 0 150 -50 0 -50 0 0
100 0 100 -100 0 -100 0 0 50 0 50 50 0 50 0 0 50 0 50 100 0 100 0 0 50 0 50
-50 0 -50 0 0 50 0 50 -200 0 -200 0 0 -50 0 -50 -50 0 -50 0 0 -50 0 -50 -50
0 -50 0 0 100 0 100 -50 0 -50 0 0 -50z m400 -100 l0 -50 50 0 50 0 0 -50 0
-50 -50 0 -50 0 0 50 0 50 -50 0 -50 0 0 50 0 50 50 0 50 0 0 -50z m-800 -900
l0 -50 -50 0 -50 0 0 50 0 50 50 0 50 0 0 -50z m-300 -500 l0 -50 -50 0 -50 0
0 50 0 50 50 0 50 0 0 -50z m800 -100 l0 -50 50 0 50 0 0 50 0 50 50 0 50 0 0
-50 0 -50 -50 0 -50 0 0 -100 0 -100 50 0 50 0 0 -50 0 -50 -50 0 -50 0 0 50
0 50 -50 0 -50 0 0 100 0 100 -100 0 -100 0 0 50 0 50 100 0 100 0 0 -50z
m1000 -200 l0 -150 -150 0 -150 0 0 150 0 150 150 0 150 0 0 -150z m-600 0 l0
-50 -50 0 -50 0 0 50 0 50 50 0 50 0 0 -50z m200 -150 l0 -100 150 0 150 0 0
-50 0 -50 50 0 50 0 0 -100 0 -100 -100 0 -100 0 0 100 0 100 -150 0 -150 0 0
150 0 150 50 0 50 0 0 -100z m-500 -350 l0 -50 -50 0 -50 0 0 50 0 50 50 0 50
0 0 -50z" fill="#000000"/>
<path d="M1800 650 l0 -50 50 0 50 0 0 50 0 50 -50 0 -50 0 0 -50z" fill="#000000"/>
<path d="M1800 2150 l0 -350 350 0 350 0 0 350 0 350 -350 0 -350 0 0 -350z
m600 0 l0 -250 -250 0 -250 0 0 250 0 250 250 0 250 0 0 -250z" fill="#000000"/>
<path d="M2000 2150 l0 -150 150 0 150 0 0 150 0 150 -150 0 -150 0 0 -150z" fill="#000000"/>
<path d="M1200 1800 l0 -100 50 0 50 0 0 100 0 100 -50 0 -50 0 0 -100z" fill="#000000"/>
<path d="M0 1650 l0 -50 50 0 50 0 0 50 0 50 -50 0 -50 0 0 -50z" fill="#000000"/>
<path d="M2000 1650 l0 -50 50 0 50 0 0 50 0 50 -50 0 -50 0 0 -50z" fill="#000000"/>
<path d="M2300 650 l0 -150 50 0 50 0 0 -50 0 -50 50 0 50 0 0 200 0 200 -100
0 -100 0 0 -150z" fill="#000000"/>
<path d="M0 350 l0 -350 350 0 350 0 0 350 0 350 -350 0 -350 0 0 -350z m600
0 l0 -250 -250 0 -250 0 0 250 0 250 250 0 250 0 0 -250z" fill="#000000"/>
<path d="M200 350 l0 -150 150 0 150 0 0 150 0 150 -150 0 -150 0 0 -150z" fill="#000000"/>
<path d="M2400 250 l0 -50 -50 0 -50 0 0 -100 0 -100 100 0 100 0 0 50 0 50
-50 0 -50 0 0 50 0 50 50 0 50 0 0 50 0 50 -50 0 -50 0 0 -50z" fill="#000000"/>
</g>
</svg>
